#!OML:ASF F:\VICON\USERDATA\INSTALL\rory3\rory3.ASF
:FULLY-SPECIFIED
:DEGREES
2394
root 13.5696 17.7674 -3.81893 -724.877 170.065 -0.567927
lowerback 10.8532 0.709256 -3.16036
upperback 0.527654 0.643064 0.264243
thorax -5.5769 0.431886 1.95631
lowerneck -18.8686 -3.14746 -8.92993
upperneck 32.8902 -0.916606 3.88559
head 14.6337 -0.287384 3.16881
rclavicle -9.93923e-016 -7.20594e-015
rhumerus -41.6228 -10.8558 -78.5529
rradius 28.7038
rwrist 5.70183
rhand -18.059 6.30825
rfingers 7.12502
rthumb 8.2134 -23.5121
lclavicle -9.93923e-016 -7.20594e-015
lhumerus -32.9163 -5.25307 86.0076
lradius 48.8857
lwrist -1.55175
lhand -18.2313 25.0702
lfingers 7.12502
lthumb 8.04711 54.897
rfemur -19.7558 8.106 11.1345
rtibia 39.7977
rfoot -12.461 -0.79165
rtoes -18.0098
lfemur -0.793945 -9.28195 -31.3548
ltibia 23.1805
lfoot -10.1998 -7.41613
ltoes 11.4387
2395
root 13.6072 17.765 -3.91113 -724.837 171.247 -0.220784
lowerback 10.9934 0.553718 -2.89176
upperback 0.519902 0.472468 0.38059
thorax -5.65237 0.344167 1.95279
lowerneck -18.7893 -3.23123 -9.09074
upperneck 32.809 -1.02508 3.99084
head 14.5914 -0.335702 3.21832
rclavicle -4.34686e-015 2.43511e-015
rhumerus -41.5772 -10.9652 -78.3382
rradius 28.0376
rwrist 5.88548
rhand -18.1615 6.7976
rfingers 7.12502
rthumb 8.11447 -23.0266
lclavicle -4.34686e-015 2.43511e-015
lhumerus -32.76 -5.54736 86.143
lradius 49.2498
lwrist -1.47482
lhand -18.3572 24.9533
lfingers 7.12502
lthumb 7.92555 54.7847
rfemur -19.3612 9.04867 11.0675
rtibia 37.2916
rfoot -12.8059 0.764486
rtoes -18.8062
lfemur -0.579799 -10.0223 -31.0394
ltibia 23.5441
lfoot -10.3739 -7.96158
ltoes 12.0284
2396
root 13.6381 17.7542 -4.00191 -724.939 172.776 0.273065
lowerback 11.1967 0.235523 -2.37084
upperback 0.655294 0.128481 0.508975
thorax -5.60296 0.165556 1.84719
lowerneck -18.8794 -3.24242 -9.01104
upperneck 32.7024 -1.03804 3.88626
head 14.5627 -0.348391 3.15407
rclavicle -1.83418e-014 1.73937e-015
rhumerus -41.613 -11.0991 -78.2104
rradius 28.0439
rwrist 6.05232
rhand -18.2214 6.44627
rfingers 7.12502
rthumb 8.05664 -23.3802
lclavicle -1.83418e-014 1.73937e-015
lhumerus -32.4899 -5.7727 86.2271
lradius 49.6291
lwrist -1.39833
lhand -18.2652 25.1536
lfingers 7.12502
lthumb 8.01433 54.9817
rfemur -18.725 9.85268 11.1293
rtibia 34.8897
rfoot -13.3374 2.48701
rtoes -19.0614
lfemur -0.157923 -11.1671 -30.6751
ltibia 23.9433
lfoot -10.6025 -8.30744
ltoes 10.8256
2397
root 13.6762 17.7487 -4.09178 -724.846 173.619 0.634324
lowerback 11.1267 0.159583 -2.19172
upperback 0.700885 0.0649515 0.680683
thorax -5.51254 0.131572 1.93586
lowerneck -18.9688 -3.27346 -8.93037
upperneck 32.6856 -1.04243 3.71911
head 14.5747 -0.363019 3.06976
rclavicle -2.05074e-015 -5.46658e-016
rhumerus -41.6979 -10.9611 -78.1336
rradius 27.9897
rwrist 5.99406
rhand -18.3327 6.35518
rfingers 7.12502
rthumb 7.94925 -23.4753
lclavicle -2.05074e-015 -5.46658e-016
lhumerus -32.27 -5.89542 86.314
lradius 49.9047
lwrist -1.33137
lhand -18.3103 25.298
lfingers 7.12502
lthumb 7.97087 55.1277
rfemur -18.5753 11.0211 11.1085
rtibia 32.6634
rfoot -13.8359 4.57113
rtoes -20.5233
lfemur -0.0517184 -11.8327 -30.3327
ltibia 24.4098
lfoot -10.9397 -8.46492
ltoes 9.87744
2398
root 13.7138 17.748 -4.18404 -724.788 174.503 0.78394
lowerback 11.0447 0.113087 -2.22208
upperback 0.739588 0.00894163 0.770302
thorax -5.42309 0.105305 2.05529
lowerneck -18.9981 -3.31146 -8.99709
upperneck 32.7089 -1.09635 3.82931
head 14.5979 -0.374268 3.12004
rclavicle 1.10496e-015 -1.51573e-015
rhumerus -41.8212 -10.8655 -78.0602
rradius 27.9409
rwrist 5.95683
rhand -18.2643 6.33852
rfingers 7.12502
rthumb 8.01525 -23.4895
lclavicle 1.10496e-015 -1.51573e-015
lhumerus -32.0658 -6.08439 86.3945
lradius 50.1418
lwrist -1.36057
lhand -18.4629 24.8699
lfingers 7.12502
lthumb 7.82357 54.7052
rfemur -18.4316 11.944 10.8961
rtibia 30.6129
rfoot -14.3016 6.94208
rtoes -21.5251
lfemur -0.00770341 -12.3861 -30.192
ltibia 24.9998
lfoot -11.3522 -8.80384
ltoes 10.6741
2399
root 13.7482 17.7419 -4.27311 -724.744 175.553 0.925655
lowerback 10.975 0.0151795 -2.19569
upperback 0.842095 -0.105631 0.83447
thorax -5.27016 0.048746 2.12432
lowerneck -19.0631 -3.32261 -9.07413
upperneck 32.6889 -1.13656 4.00572
head 14.608 -0.374029 3.20005
rclavicle -1.02281e-014 4.5472e-015
rhumerus -41.7539 -10.8883 -77.9893
rradius 27.8646
rwrist 6.00478
rhand -18.1502 6.15649
rfingers 7.12502
rthumb 8.12533 -23.6673
lclavicle -1.02281e-014 4.5472e-015
lhumerus -31.6827 -6.41288 86.4656
lradius 50.2713
lwrist -1.31992
lhand -18.4046 24.5995
lfingers 7.12502
lthumb 7.87983 54.4326
rfemur -18.2321 12.6041 10.6748
rtibia 28.7835
rfoot -14.7612 9.54383
rtoes -21.971
lfemur 0.0402669 -12.9545 -30.0838
ltibia 25.6452
lfoot -11.8397 -9.20628
ltoes 10.0449
2400
root 13.7797 17.7324 -4.35951 -724.678 176.594 1.32237
lowerback 10.9863 -0.0896288 -1.85175
upperback 0.902127 -0.188934 0.961897
thorax -5.20968 0.00281431 2.07574
lowerneck -19.0648 -3.38048 -9.12623
upperneck 32.609 -1.20093 3.99738
head 14.579 -0.407952 3.19112
rclavicle -8.20375e-015 -3.03147e-015
rhumerus -41.6914 -10.84 -77.9624
rradius 27.8079
rwrist 5.92951
rhand -18.1398 6.06334
rfingers 7.12502
rthumb 8.13539 -23.7601
lclavicle -8.20375e-015 -3.03147e-015
lhumerus -31.3584 -6.74978 86.6046
lradius 50.3822
lwrist -1.18288
lhand -18.2524 24.8413
lfingers 7.12502
lthumb 8.02672 54.6689
rfemur -18.0597 13.0999 10.7861
rtibia 27.2533
rfoot -15.4764 12.1011
rtoes -23.9398
lfemur 0.0887601 -13.6955 -29.7316
ltibia 26.2577
lfoot -12.1631 -9.39394
ltoes 8.88176
2401
root 13.8081 17.7259 -4.44272 -724.618 177.606 1.58715
lowerback 11.1006 -0.151745 -1.61917
upperback 0.872437 -0.237058 1.05007
thorax -5.30299 -0.0227461 2.04508
lowerneck -18.9683 -3.48457 -9.2216
upperneck 32.5308 -1.32736 4.00928
head 14.5356 -0.467973 3.18738
rclavicle 3.65344e-015 7.95139e-016
rhumerus -41.7955 -10.9224 -77.8311
rradius 27.7623
rwrist 5.92205
rhand -18.224 6.00959
rfingers 7.12502
rthumb 8.05415 -23.8169
lclavicle 3.65344e-015 7.95139e-016
lhumerus -31.2003 -7.10887 86.7957
lradius 50.476
lwrist -1.07005
lhand -18.4406 25.0401
lfingers 7.12502
lthumb 7.84508 54.8745
rfemur -17.9742 13.0861 10.8572
rtibia 25.9923
rfoot -15.8935 14.7657
rtoes -25.9399
lfemur 0.0937628 -14.369 -29.5084
ltibia 26.8618
lfoot -12.4003 -9.57783
ltoes 8.79729
2402
root 13.8375 17.72 -4.52435 -724.597 178.639 1.52869
lowerback 11.2131 -0.205782 -1.74076
upperback 0.854264 -0.324236 1.05178
thorax -5.38008 -0.0612266 2.13026
lowerneck -18.963 -3.51869 -9.26067
upperneck 32.4963 -1.38103 4.08103
head 14.5246 -0.481541 3.21413
rclavicle 5.19247e-015 -7.45443e-015
rhumerus -41.9329 -10.8791 -77.7386
rradius 27.7591
rwrist 5.93742
rhand -18.2461 6.31392
rfingers 7.12502
rthumb 8.03283 -23.5134
lclavicle 5.19247e-015 -7.45443e-015
lhumerus -31.0768 -7.41187 86.9454
lradius 50.5361
lwrist -1.04928
lhand -18.6779 25.0241
lfingers 7.12502
lthumb 7.61603 54.867
rfemur -17.9614 12.6781 10.6972
rtibia 24.9991
rfoot -15.9036 17.288
rtoes -28.0563
lfemur 0.123154 -14.9194 -29.6235
ltibia 27.4225
lfoot -12.5307 -9.84209
ltoes 8.91619
2403
root 13.8672 17.7162 -4.60635 -724.6 179.605 1.57681
lowerback 11.3257 -0.265666 -1.77334
upperback 0.852587 -0.405158 1.07852
thorax -5.44028 -0.0979952 2.19053
lowerneck -18.9831 -3.4914 -9.25547
upperneck 32.5021 -1.37135 4.21253
head 14.5307 -0.452304 3.27167
rclavicle -8.93755e-016 1.44119e-015
rhumerus -42.0347 -10.6103 -77.8121
rradius 27.8013
rwrist 5.82646
rhand -18.2969 6.37628
rfingers 7.12502
rthumb 7.98381 -23.4529
lclavicle -8.93755e-016 1.44119e-015
lhumerus -30.9359 -7.62086 87.0411
lradius 50.5544
lwrist -1.07669
lhand -18.6075 25.0245
lfingers 7.12502
lthumb 7.68405 54.8649
rfemur -18.0124 12.336 10.7274
rtibia 24.3221
rfoot -13.5369 19.6687
rtoes -25.8185
lfemur 0.201596 -15.5116 -29.6424
ltibia 27.9284
lfoot -12.506 -10.0439
ltoes 9.32664
2404
root 13.8971 17.7151 -4.68879 -724.667 180.588 1.81009
lowerback 11.5059 -0.178082 -1.63213
upperback 0.854199 -0.493647 1.19683
thorax -5.53781 -0.238975 2.26062
lowerneck -18.983 -3.52127 -9.36534
upperneck 32.5669 -1.39412 4.34671
head 14.5652 -0.448088 3.34778
rclavicle 4.48508e-015 -7.8023e-015
rhumerus -42.0619 -10.4225 -77.7973
rradius 27.7192
rwrist 5.68992
rhand -18.4545 6.16967
rfingers 7.12502
rthumb 7.83167 -23.6653
lclavicle 4.48508e-015 -7.8023e-015
lhumerus -30.8514 -7.80986 87.2266
lradius 50.5808
lwrist -0.987795
lhand -18.4762 24.9079
lfingers 7.12502
lthumb 7.81075 54.7436
rfemur -17.9329 11.8908 11.0269
rtibia 23.9219
rfoot -11.448 21.4273
rtoes -22.799
lfemur 0.34207 -16.0233 -29.4462
ltibia 28.4453
lfoot -12.4969 -10.3294
ltoes 9.57256
2405
root 13.9253 17.7164 -4.76832 -724.605 181.571 1.89298
lowerback 11.5358 -0.221022 -1.66534
upperback 0.871225 -0.552768 1.26735
thorax -5.53268 -0.267264 2.3633
lowerneck -19.1079 -3.58832 -9.41498
upperneck 32.6931 -1.44325 4.37275
head 14.6575 -0.464958 3.36669
rclavicle -4.65999e-015 -6.83322e-017
rhumerus -41.9251 -10.4635 -77.6966
rradius 27.4948
rwrist 5.76509
rhand -18.542 6.17544
rfingers 7.12502
rthumb 7.74723 -23.6626
lclavicle -4.65999e-015 -6.83322e-017
lhumerus -30.7167 -7.93654 87.3796
lradius 50.53
lwrist -0.93659
lhand -18.7777 24.5915
lfingers 7.12502
lthumb 7.51973 54.4378
rfemur -17.918 11.1011 11.2097
rtibia 23.6918
rfoot -10.7064 22.6932
rtoes -22.5696
lfemur 0.27072 -16.5813 -29.3754
ltibia 29.0559
lfoot -12.4772 -10.6075
ltoes 9.92367
2406
root 13.9569 17.7127 -4.8435 -724.484 182.482 1.83376
lowerback 11.4812 -0.212949 -1.89509
upperback 0.942032 -0.571301 1.30425
thorax -5.4243 -0.273796 2.53348
lowerneck -19.1689 -1.3686 -10.0474
upperneck 32.369 -2.33131 5.11545
head 14.5306 -2.27054 3.24158
rclavicle 6.35655e-015 -9.64882e-015
rhumerus -41.7508 -10.4835 -77.6613
rradius 27.4437
rwrist 5.82008
rhand -18.5248 6.01804
rfingers 7.12502
rthumb 7.76381 -23.8194
lclavicle 6.35655e-015 -9.64882e-015
lhumerus -30.4343 -7.9509 87.47
lradius 50.3777
lwrist -0.977528
lhand -18.908 24.6216
lfingers 7.12502
lthumb 7.39391 54.4724
rfemur -18.0022 10.5151 11.2465
rtibia 23.6405
rfoot -10.7628 23.47
rtoes -24.2791
lfemur 0.0749561 -17.0457 -29.4031
ltibia 29.7494
lfoot -12.4839 -10.9018
ltoes 9.75063
2407
root 13.9894 17.7072 -4.92495 -724.472 183.353 1.92562
lowerback 11.4675 -0.199041 -1.9578
upperback 1.0359 -0.561845 1.39327
thorax -5.31707 -0.271968 2.65998
lowerneck -19.184 -1.41427 -10.0216
upperneck 32.2528 -2.30418 4.96607
head 14.4786 -2.25622 3.18079
rclavicle 1.32627e-015 1.51573e-015
rhumerus -41.6246 -10.6531 -77.4906
rradius 27.4085
rwrist 6.12059
rhand -18.2453 5.88272
rfingers 7.12502
rthumb 8.03358 -23.9446
lclavicle 1.32627e-015 1.51573e-015
lhumerus -30.2348 -7.78585 87.5774
lradius 50.337
lwrist -0.827008
lhand -18.4534 25.4361
lfingers 7.12502
lthumb 7.83272 55.271
rfemur -17.9323 10.2726 11.4611
rtibia 23.7422
rfoot -11.8975 23.7616
rtoes -27.5127
lfemur -0.0216855 -17.3389 -29.2555
ltibia 30.5092
lfoot -12.5471 -11.2987
ltoes 9.62896
